<?xml version="1.0" standalone="no"?>
<!DOCTYPE svg PUBLIC "-//W3C//DTD SVG 20010904//EN"
 "http://www.w3.org/TR/2001/REC-SVG-20010904/DTD/svg10.dtd">
<svg version="1.0" xmlns="http://www.w3.org/2000/svg"
 width="260.000000pt" height="260.000000pt" viewBox="0 0 260.000000 260.000000"
 preserveAspectRatio="xMidYMid meet">
<metadata>
Created by potrace 1.11, written by Peter Selinger 2001-2013
</metadata>
<g transform="translate(0.000000,260.000000) scale(0.100000,-0.100000)"
fill="#000000" stroke="none">
<path d="M53 2579 c-17 -11 -36 -34 -42 -51 -8 -22 -11 -398 -11 -1235 0
-1328 -4 -1238 60 -1277 26 -15 136 -16 1233 -16 783 0 1215 4 1232 10 31 12
47 27 63 57 9 16 12 333 12 1228 0 1019 -2 1211 -14 1240 -29 69 57 65 -1288
65 -1202 0 -1213 -1 -1245 -21z"/>
</g>
</svg>
